<?xml version="1.0" encoding="utf-8"?>
<!-- Generator: Adobe Illustrator 17.0.0, SVG Export Plug-In . SVG Version: 6.00 Build 0)  -->
<!DOCTYPE svg PUBLIC "-//W3C//DTD SVG 1.1 Tiny//EN" "http://www.w3.org/Graphics/SVG/1.1/DTD/svg11-tiny.dtd">
<svg version="1.1" baseProfile="tiny" id="Layer_1" xmlns="http://www.w3.org/2000/svg" xmlns:xlink="http://www.w3.org/1999/xlink"
	 x="0px" y="0px" width="121" height="17" viewBox="-627 413 500 70" xml:space="preserve">
<g>
	<path fill="#FFFFFF" d="M-592.588,449.483c-4.609,0-4.802,0.194-4.802,3.075v13.539c0,10.08,0.481,11.425,5.858,12l2.784,0.291
		c0.576,0.384,0.384,2.112-0.192,2.4c-5.185-0.194-8.45-0.288-12.194-0.288c-4.129,0-7.394,0.192-11.139,0.288
		c-0.576-0.288-0.768-1.825-0.191-2.4l1.632-0.291c5.377-0.958,5.569-1.919,5.569-12v-34.568c0-10.081-0.671-11.714-5.665-12.098
		l-2.496-0.192c-0.576-0.384-0.384-2.112,0.192-2.4c4.705,0.096,7.969,0.287,12.098,0.287c3.744,0,7.009-0.095,11.138-0.287
		c0.576,0.287,0.768,2.016,0.192,2.4l-1.824,0.192c-5.57,0.575-5.762,2.017-5.762,12.098v11.042c0,2.977,0.192,3.072,4.802,3.072
		h27.461c4.608,0,4.801-0.095,4.801-3.072v-11.042c0-10.081-0.192-11.523-5.857-12.098l-1.824-0.192
		c-0.576-0.384-0.384-2.112,0.191-2.4c4.417,0.192,7.681,0.287,11.619,0.287c3.744,0,7.009-0.095,11.33-0.287
		c0.576,0.287,0.768,2.016,0.191,2.4l-2.016,0.192c-5.569,0.575-5.761,2.017-5.761,12.098v34.568c0,10.08,0.192,11.329,5.761,12
		l2.305,0.291c0.576,0.384,0.384,2.112-0.193,2.4c-4.608-0.194-7.874-0.288-11.617-0.288c-3.937,0-7.394,0.094-11.619,0.288
		c-0.576-0.288-0.768-1.825-0.191-2.4l1.824-0.291c5.857-0.958,5.857-1.919,5.857-12v-13.539c0-2.881-0.192-3.075-4.801-3.075
		H-592.588z"/>
	<path fill="#FFFFFF" d="M-483.987,441.226c0-5.952-0.191-16.994-1.824-19.874c-0.673-1.153-2.401-1.826-4.801-2.016l-2.401-0.194
		c-0.576-0.671-0.384-1.92,0.192-2.303c3.648,0.192,7.201,0.287,10.946,0.287c4.033,0,6.625-0.095,10.082-0.287
		c0.768,0.481,0.672,1.729,0.192,2.303l-2.305,0.194c-2.4,0.19-4.224,1.054-4.801,2.303c-1.344,3.169-1.344,14.21-1.344,19.588
		v10.851c0,8.353-1.344,17.186-6.721,22.948c-4.129,4.512-11.234,7.009-18.339,7.009c-6.625,0-13.251-1.248-17.956-5.281
		c-5.089-4.226-7.489-11.236-7.489-22.661v-22.661c0-9.985-0.193-11.618-5.761-12.096l-2.401-0.194
		c-0.576-0.384-0.384-2.016,0.192-2.303c4.801,0.192,8.066,0.287,11.906,0.287c3.936,0,7.105-0.095,11.81-0.287
		c0.576,0.287,0.768,1.919,0.192,2.303l-2.305,0.194c-5.569,0.479-5.76,2.112-5.76,12.096v20.741
		c0,15.458,4.801,25.635,19.491,25.635c13.922,0,19.204-10.945,19.204-25.54v-11.044h0.001V441.226z"/>
	<path fill="#FFFFFF" d="M-452.203,444.202c0,2.594,0.288,2.594,3.168,2.594h6.529c3.936,0,7.009-0.193,8.162-0.578
		c1.056-0.384,1.824-0.864,2.4-3.359l0.865-3.84c0.48-0.578,2.112-0.578,2.497,0c0,2.303-0.385,6.145-0.385,9.697
		c0,3.457,0.385,7.106,0.385,9.313c-0.385,0.578-1.825,0.578-2.497,0l-0.96-3.743c-0.48-1.728-1.248-3.073-3.072-3.649
		c-1.344-0.385-3.744-0.481-7.394-0.481h-6.529c-2.881,0-3.168,0.095-3.168,2.592v13.349c0,10.08,0.191,11.52,5.857,12l3.264,0.291
		c0.576,0.384,0.384,2.112-0.191,2.4c-5.665-0.194-8.93-0.288-12.77-0.288c-4.225,0-7.489,0.094-12.002,0.288
		c-0.577-0.288-0.768-1.825-0.191-2.4l2.4-0.291c5.57-0.67,5.761-1.919,5.761-12v-34.568c0-10.081-0.191-11.426-5.761-12.098
		l-1.536-0.192c-0.576-0.384-0.384-2.112,0.192-2.4c4.032,0.192,7.297,0.287,11.138,0.287h17.667c6.145,0,11.714,0,12.963-0.287
		c0,4.416,0.096,9.026,0.288,12.673c-0.288,0.576-1.632,0.865-2.305,0.287c-0.768-4.319-1.921-7.872-6.722-9.121
		c-2.112-0.576-5.281-0.576-9.313-0.576h-5.857c-2.881,0-2.881,0.193-2.881,3.841v20.26L-452.203,444.202L-452.203,444.202z"/>
	<path fill="#FFFFFF" d="M-402.463,444.202c0,2.594,0.288,2.594,3.169,2.594h6.529c3.936,0,7.009-0.193,8.162-0.578
		c1.056-0.384,1.824-0.864,2.4-3.359l0.865-3.84c0.48-0.578,2.111-0.578,2.497,0c0,2.303-0.385,6.145-0.385,9.697
		c0,3.457,0.385,7.106,0.385,9.313c-0.385,0.578-1.824,0.578-2.497,0l-0.96-3.743c-0.48-1.728-1.248-3.073-3.072-3.649
		c-1.345-0.385-3.744-0.481-7.394-0.481h-6.529c-2.881,0-3.169,0.095-3.169,2.592v13.349c0,10.08,0.192,11.52,5.857,12l3.265,0.291
		c0.576,0.384,0.384,2.112-0.192,2.4c-5.665-0.194-8.93-0.288-12.77-0.288c-4.225,0-7.49,0.094-12.003,0.288
		c-0.576-0.288-0.768-1.825-0.192-2.4l2.4-0.291c5.569-0.67,5.76-1.919,5.76-12v-34.568c0-10.081-0.192-11.426-5.76-12.098
		l-1.537-0.192c-0.576-0.384-0.384-2.112,0.192-2.4c4.033,0.192,7.297,0.287,11.139,0.287h17.667c6.145,0,11.715,0,12.964-0.287
		c0,4.416,0.095,9.026,0.287,12.673c-0.287,0.576-1.632,0.865-2.305,0.287c-0.768-4.319-1.921-7.872-6.721-9.121
		c-2.112-0.576-5.282-0.576-9.314-0.576h-5.857c-2.881,0-2.881,0.193-2.881,3.841L-402.463,444.202L-402.463,444.202z"/>
	<path fill="#FFFFFF" d="M-352.724,466.096c0,10.08,0.192,11.329,6.337,12l2.592,0.291c0.578,0.479,0.385,2.112-0.192,2.4
		c-5.472-0.194-8.642-0.288-12.481-0.288c-4.033,0-7.49,0.094-11.716,0.288c-0.574-0.288-0.768-1.825-0.19-2.4l2.016-0.291
		c5.568-0.768,5.762-1.919,5.762-12v-35.432c0-8.162-0.194-9.794-4.513-10.274l-3.458-0.384c-0.671-0.575-0.576-2.016,0.193-2.4
		c5.088-0.671,11.042-0.768,19.01-0.768c7.97,0,13.924,1.055,18.436,3.84c4.416,2.785,7.68,7.778,7.68,14.402
		c0,8.835-5.472,13.252-9.602,15.268c-4.224,2.016-9.313,2.88-13.25,2.88c-0.672-0.287-0.672-1.729-0.097-1.92
		c10.371-1.921,14.115-7.778,14.115-16.131c0-9.313-5.472-15.363-15.458-15.363c-5.09,0-5.185,0.385-5.185,3.456L-352.724,466.096
		L-352.724,466.096z"/>
	<path fill="#FFFFFF" d="M-317.675,449.483c0-19.202,14.404-33.893,34.183-33.893c22.179,0,33.317,16.036,33.317,32.934
		c0,19.395-14.787,33.511-33.317,33.511C-304.808,482.035-317.675,466.768-317.675,449.483z M-259.776,451.499
		c0-15.841-7.009-32.931-25.349-32.931c-9.987,0-22.948,6.816-22.948,27.845c0,14.21,6.913,32.645,25.828,32.645
		C-270.723,479.058-259.776,470.416-259.776,451.499z"/>
	<path fill="#FFFFFF" d="M-226.165,482.035c-8.066,0-13.155-2.497-14.979-3.553c-1.152-2.113-2.4-8.932-2.592-13.444
		c0.479-0.671,1.919-0.865,2.305-0.287c1.44,4.896,5.376,14.307,16.515,14.307c8.066,0,12.002-5.281,12.002-11.042
		c0-4.226-0.864-8.928-7.873-13.442l-9.122-5.954c-4.8-3.169-10.369-8.641-10.369-16.515c0-9.12,7.105-16.514,19.587-16.514
		c2.978,0,6.434,0.576,8.93,1.248c1.248,0.384,2.592,0.576,3.36,0.576c0.864,2.304,1.729,7.682,1.729,11.715
		c-0.384,0.575-1.92,0.864-2.4,0.287c-1.248-4.608-3.841-10.849-13.06-10.849c-9.41,0-11.426,6.24-11.426,10.658
		c0,5.568,4.609,9.6,8.161,11.81l7.683,4.799c6.048,3.745,12.001,9.315,12.001,18.436
		C-205.714,474.832-213.683,482.035-226.165,482.035z"/>
	<path fill="#FFFFFF" d="M-167.305,466.096c0,10.08,0.194,11.52,5.762,12l3.072,0.291c0.578,0.384,0.385,2.112-0.191,2.4
		c-5.473-0.194-8.738-0.288-12.578-0.288c-3.843,0-7.202,0.094-13.347,0.288c-0.576-0.288-0.768-1.922,0-2.4l3.457-0.291
		c5.473-0.479,5.953-1.919,5.953-12v-42.921c0-2.977,0-3.073-2.881-3.073h-5.281c-4.129,0-9.41,0.193-11.811,2.4
		c-2.303,2.113-3.264,4.226-4.319,6.626c-0.77,0.575-2.112,0.096-2.497-0.673c1.536-4.321,2.976-10.467,3.648-14.307
		c0.287-0.192,1.536-0.289,1.824,0c0.576,3.073,3.746,2.977,8.161,2.977h38.887c5.185,0,6.05-0.191,7.491-2.688
		c0.479-0.193,1.536-0.096,1.727,0.287c-1.056,3.938-1.727,11.715-1.44,14.596c-0.384,0.766-2.016,0.766-2.495,0.191
		c-0.289-2.4-0.961-5.953-2.402-7.009c-2.208-1.632-5.857-2.4-11.137-2.4h-6.819c-2.88,0-2.785,0.096-2.785,3.266L-167.305,466.096
		L-167.305,466.096z"/>
</g>
</svg>
