<?xml version="1.0" encoding="utf-8"?>
<!-- Generator: Adobe Illustrator 17.1.0, SVG Export Plug-In . SVG Version: 6.00 Build 0)  -->
<!DOCTYPE svg PUBLIC "-//W3C//DTD SVG 1.1//EN" "http://www.w3.org/Graphics/SVG/1.1/DTD/svg11.dtd">
<svg version="1.1"
	 id="svg2876" xmlns:rdf="http://www.w3.org/1999/02/22-rdf-syntax-ns#" xmlns:cc="http://creativecommons.org/ns#" xmlns:svg="http://www.w3.org/2000/svg" xmlns:dc="http://purl.org/dc/elements/1.1/" inkscape:version="0.47 r22583" sodipodi:docname="totenkitten.svg" xmlns:sodipodi="http://sodipodi.sourceforge.net/DTD/sodipodi-0.dtd" xmlns:inkscape="http://www.inkscape.org/namespaces/inkscape"
	 xmlns="http://www.w3.org/2000/svg" xmlns:xlink="http://www.w3.org/1999/xlink" x="0px" y="0px" viewBox="0 0 1728 1728"
	 enable-background="new 0 0 1728 1728" xml:space="preserve">
<defs>
	
	
		<inkscape:perspective  inkscape:persp3d-origin="0.5 : 0.33333333 : 1" id="perspective2884" inkscape:vp_z="1 : 0.5 : 1" sodipodi:type="inkscape:persp3d" inkscape:vp_y="0 : 1000 : 0" inkscape:vp_x="0 : 0.5 : 1">
		</inkscape:perspective>
	
		<inkscape:perspective  inkscape:persp3d-origin="0.5 : 0.33333333 : 1" id="perspective2940" inkscape:vp_z="1 : 0.5 : 1" sodipodi:type="inkscape:persp3d" inkscape:vp_y="0 : 1000 : 0" inkscape:vp_x="0 : 0.5 : 1">
		</inkscape:perspective>
</defs>
<sodipodi:namedview  inkscape:current-layer="svg2876" inkscape:window-maximized="1" inkscape:window-y="25" inkscape:window-x="0" inkscape:window-height="977" inkscape:window-width="1400" inkscape:pageshadow="2" inkscape:pageopacity="0" id="namedview2878" objecttolerance="10" inkscape:cy="362.71585" showgrid="false" inkscape:cx="206.17201" pagecolor="#ffffff" guidetolerance="10" bordercolor="#666666" inkscape:zoom="7.1732155" borderopacity="1" gridtolerance="10">
	</sodipodi:namedview>
<path id="path2907" sodipodi:nodetypes="cscccccccscccccccccccccccccccccccccccscccccccccccccccccccccccccccccccccccccccccccccccc" fill="none" stroke="#000000" stroke-linecap="round" stroke-linejoin="round" d="
	M505.2,283.6c3.6,5.2,8,10,13.6,16.8c4.4,6,11.2,13.2,15.6,20c8.8,10.4,5.2,7.6,12.8,20c9.2,15.6,18.4,28.8,28,46
	c7.6,13.6,10,21.6,20.8,41.2c6,12,12.8,30,19.2,52.8c6.4,20.8,9.6,26.8,13.6,50.4c7.6,35.6,13.6,54.8,16.4,83.2
	c2.8,7.6,6.8,13.2,12.4,11.6c5.2-1.2,21.2,0.4,34-6c18.4-6.4,49.2-17.6,74-20c26.4-4.4,59.2-6.8,82-7.6c24-1.2,46.8-1.6,69.2,0
	c26.4,1.2,56,4,78.8,9.2c20.8,3.2,36.4,7.6,56,13.2c20.8,9.6,26,10.4,33.2,3.2c7.2-12.8,10.4-26,13.2-39.6
	c2.8-21.6,1.6-15.2,9.2-39.2c11.6-33.2,14.8-47.6,21.2-64c11.2-39.6,25.6-64.8,35.6-88c11.6-21.6-3.6,5.2,17.2-31.6
	c6-12.8,16-27.2,26-41.2c19.2-28,28-34,34.8-42c8.4-20,20.8,14.8,32.4,34c7.6,22,15.6,28.8,21.6,50.4c6,16,7.2,21.2,12,37.6
	c6.4,23.2,10.8,40.4,13.6,58.8c8.8,38,13.2,60.4,17.2,93.2c2,25.6,4.8,37.6,5.2,60c2.8,26.8,2,45.2,3.2,64c-1.2,16.4,2,26-1.2,58.4
	c0.4,24-2,42.8-4.8,66.8c-2.8,34-8.4,60.8-13.6,95.6c-6.4,31.6-7.2,58.4-18,88c-7.6,27.2-14.4,48.8-26,73.6
	c-6.4,18-10.8,24.8-21.6,45.6c-10,22.4-13.6,23.2-18.4,34s-6.4,15.2-19.2,35.6c-12.8,16.4-14.4,20.8-36,48.8
	c-11.2,14.4-8.4,8.4-23.6,29.2c-10.8,12-17.6,22.4-32.8,37.2c-16,13.6-20,16.8-38.8,28.8c-14.8,6.8-22.4,12.8-21.2,31.6
	c-2,21.2-6,56-9.2,78c-6.8,13.6-7.6,66.4-22.4,21.2c-7.6-20.4-14-42-16.4-56.8c-5.2-18-11.2-35.2-13.6-50.8
	c-1.2-8.8-9.6-48-9.2-21.6c0.4,5.2-2,13.6-5.2,26.8c8.4,12-20.4,4-42,8.4c-16.4,1.6-12.4-4.4-13.6-24.4c-0.4-15.2-1.2-30.4-1.2-19.2
	c-10,18.8,2,44-20.4,42c-12-1.6-29.2-0.4-34.8,0c-12-0.4-12.8-47.2-12.8-44.8c-5.2,7.6,5.6,48.8-21.2,43.6c-10.4,1.2-39.6,5.6-46,0
	c-2.4-0.4-13.6-62.8-12.4-38.4c-9.2,16.8,9.2,44.4-25.2,41.2c-21.2,7.6-23.2,3.6-37.6-3.2c-6-2.8-2.4-36.4-6.8-42
	c-2.4,9.6-8.4,50.4-12.8,67.6c-4.8,30.8-8.4,75.6-18,88c-9.6-2.8-19.6-57.6-26.4-78.8c-6-21.2-10.4-47.6-19.2-56.8
	c-19.6-10-39.6-26.8-48-33.6c-11.2-11.6-30-27.2-27.2-24c-15.6-15.2-23.2-22.4-35.6-42c-13.2-18.4-23.2-36-31.6-48.8
	c-13.2-20.8-13.6-24.4-20.4-38c-7.6-15.2-18.8-36.4-24.4-51.6c-16-38.8-19.2-40.8-28.4-64c-7.6-18.8-10.8-30.8-16.8-53.6
	c-4.8-16.8-8.8-34.8-12-54.4c-4.8-25.2-6.8-30.4-9.6-52.8c-3.6-25.6-6-51.2-6-74.8c-1.2-35.2-6-70-6-103.2c0-29.2,2.8-59.2,3.6-83.2
	c2-23.2,7.6-56,9.6-78c1.6-38.4,11.2-47.2,17.6-84c9.2-39.6,20.4-59.2,27.2-80c8.4-22,8-18.4,18.4-44.4c14-21.6,15.2-25.6,28-42.8
	c4.8-7.2,8-6,12.4,1.2L505.2,283.6L505.2,283.6z"/>
<path id="path2909" sodipodi:nodetypes="cccccccccccccccc" fill="none" stroke="#000000" stroke-linecap="round" stroke-linejoin="round" d="
	M962,969.2c-8.4-20-9.6-35.2-8-55.6c-0.4-27.2,7.6-50.4,17.2-75.6c6.8-11.2,18.8-36,27.6-46c16-17.6,22-27.6,44-38.8
	c18-13.2,33.2-14,54.4-18c23.2-2.4,51.2,11.2,60,31.6c12.8,20,18.8,35.6,20,58c2.8,16.8,0.4,36.4,0,52.8c-2,11.2-0.4,24.8-5.2,32.8
	c-3.2,15.2-6.4,21.6-14.4,37.2c-7.6,13.6-20.8,33.2-34,42.8c-12.8,9.2-17.6,14.8-38.4,20.4c-18.8,9.6-40.8,5.2-61.2,6.4
	c-14.8-2.8-22-8.4-34.8-16C981.2,996.4,965.6,976.8,962,969.2z"/>
<path id="path2911" sodipodi:nodetypes="ccccccccccccccccccc" fill="none" stroke="#000000" stroke-linecap="round" stroke-linejoin="round" d="
	M856,1210.4c-5.2-10.4-11.6-20.8-15.6-31.6c-6.4-14.4-12-29.2-18-44c-2.8-9.2-8-17.2-9.2-26.8c-2-6.4-5.2-14.8,0.8-20
	c6.8-3.6,13.6-3.6,22.4-4.8c9.2-0.4,18.4-0.4,28-1.2c6.8-2,17.6-0.4,24.4,0c9.6-1.2,10.8-1.2,20,0.8c7.6,1.2,11.2,2.4,12.4,10.8
	c-1.2,7.6-2,11.2-3.6,18.8c-3.6,6.8-1.2,6.4-4.8,17.6c-2.8,10-4,15.2-6.8,23.2c0,8.4-2,5.2-3.2,16.4c-1.2,6.8-2.8,11.2-5.6,21.2
	c-2,8.4-3.2,10.8-7.2,18.4c-3.6,6.4-9.2,9.2-10.8,8c-5.2,4.4-11.2,0.4-16-2C860.4,1214,858,1212.4,856,1210.4z"/>
<path id="path2909-9" sodipodi:nodetypes="cccccccccccccccc" fill="none" stroke="#000000" stroke-linecap="round" stroke-linejoin="round" d="
	M756.8,966.4c8.4-20,9.6-35.2,8-55.6c0.4-27.2-7.6-50.4-17.2-75.6c-6.8-11.2-18.8-36-27.6-46c-16-17.6-22-27.6-44-38.8
	c-18-13.2-33.2-14-54.4-18c-23.2-2.4-51.2,11.2-60,31.6c-12.8,20-18.8,35.6-20,58c-2.8,16.8-0.4,36.4,0,52.8c2,11.2,2,16.4,5.2,32.8
	c3.2,14.4,6.4,21.6,14.4,37.2c7.6,13.6,20.8,33.2,34,42.8c13.2,9.6,17.6,14.8,38.4,20.4c18.8,9.6,40.8,5.2,61.2,6.4
	c14.8-2.8,22-8.4,34.8-16C737.2,994,752.8,974.4,756.8,966.4z"/>
</svg>
