<?xml version="1.0" encoding="UTF-8" standalone="no"?>
<!-- Generator: Adobe Illustrator 17.1.0, SVG Export Plug-In . SVG Version: 6.00 Build 0)  -->

<svg
   xmlns:dc="http://purl.org/dc/elements/1.1/"
   xmlns:cc="http://creativecommons.org/ns#"
   xmlns:rdf="http://www.w3.org/1999/02/22-rdf-syntax-ns#"
   xmlns:svg="http://www.w3.org/2000/svg"
   xmlns="http://www.w3.org/2000/svg"
   xmlns:xlink="http://www.w3.org/1999/xlink"
   xmlns:sodipodi="http://sodipodi.sourceforge.net/DTD/sodipodi-0.dtd"
   xmlns:inkscape="http://www.inkscape.org/namespaces/inkscape"
   version="1.1"
   id="svg2876"
   inkscape:version="0.91 r13725"
   sodipodi:docname="totenkitten-small.svg"
   x="0px"
   y="0px"
   viewBox="0 0 764.99997 989.99996"
   enable-background="new 0 0 1728 1728"
   xml:space="preserve"
   width="8.5in"
   height="11in"><metadata
     id="metadata12"><rdf:RDF><cc:Work
         rdf:about=""><dc:format>image/svg+xml</dc:format><dc:type
           rdf:resource="http://purl.org/dc/dcmitype/StillImage" /><dc:title></dc:title></cc:Work></rdf:RDF></metadata><defs
     id="defs3" /><sodipodi:namedview
     inkscape:current-layer="svg2876"
     inkscape:window-maximized="1"
     inkscape:window-y="1"
     inkscape:window-x="0"
     inkscape:window-height="851"
     inkscape:window-width="1440"
     inkscape:pageshadow="2"
     inkscape:pageopacity="0"
     id="namedview2878"
     objecttolerance="10"
     inkscape:cy="782.71231"
     showgrid="false"
     inkscape:cx="308.33918"
     pagecolor="#ffffff"
     guidetolerance="10"
     bordercolor="#666666"
     inkscape:zoom="0.70710678"
     borderopacity="1"
     gridtolerance="10"
     units="in"><inkscape:grid
       type="xygrid"
       id="grid3340" /></sodipodi:namedview><g
     id="g4231"
     style="stroke-width:1;stroke-miterlimit:4;stroke-dasharray:none"><path
       style="fill:none;stroke:#000000;stroke-width:1;stroke-linecap:round;stroke-linejoin:round;stroke-miterlimit:4;stroke-dasharray:none"
       inkscape:connector-curvature="0"
       d="m 78.480751,85.65258 c 0.131658,0.190172 0.292572,0.365715 0.497372,0.614401 0.160914,0.219428 0.4096,0.482743 0.570515,0.731428 0.321828,0.380343 0.190171,0.277943 0.468114,0.731429 0.336457,0.570515 0.672914,1.053258 1.024,1.682286 0.277943,0.497372 0.365715,0.789944 0.760686,1.506744 0.219429,0.438857 0.468115,1.097143 0.702172,1.930972 0.234057,0.760686 0.351086,0.980114 0.497371,1.8432 0.277943,1.301944 0.497372,2.004115 0.599772,3.042744 0.1024,0.277943 0.248686,0.482743 0.453486,0.424229 0.190171,-0.04389 0.775314,0.01463 1.243429,-0.219429 0.672914,-0.234057 1.799315,-0.643657 2.706286,-0.731429 0.965486,-0.160914 2.16503,-0.248685 2.998859,-0.277943 0.877714,-0.04389 1.711543,-0.05851 2.530743,0 0.965486,0.04389 2.048001,0.146286 2.88183,0.336458 0.760686,0.117028 1.3312,0.277943 2.048,0.482743 0.760686,0.351086 0.950858,0.380343 1.214172,0.117028 0.263314,-0.468114 0.380342,-0.950857 0.482742,-1.448229 0.1024,-0.789943 0.0585,-0.555886 0.33646,-1.4336 0.42423,-1.214172 0.54126,-1.740801 0.77531,-2.340572 0.4096,-1.448229 0.93623,-2.36983 1.30195,-3.218287 0.42422,-0.789943 -0.13166,0.190171 0.62902,-1.155658 0.21943,-0.468114 0.58515,-0.994743 0.95086,-1.506743 0.70217,-1.024 1.024,-1.243429 1.27269,-1.536 0.3072,-0.731429 0.76068,0.541257 1.18491,1.243429 0.27795,0.804571 0.57052,1.053257 0.78995,1.8432 0.21942,0.585143 0.26331,0.775315 0.43885,1.375086 0.23406,0.848458 0.39498,1.477487 0.49738,2.150401 0.32182,1.389715 0.48274,2.208915 0.62902,3.408458 0.0731,0.936229 0.17555,1.375086 0.19018,2.194287 0.1024,0.980114 0.0731,1.653029 0.11702,2.340572 -0.0439,0.599775 0.0731,0.950855 -0.0439,2.135775 0.0146,0.87771 -0.0731,1.56525 -0.17554,2.44297 -0.1024,1.24343 -0.3072,2.22354 -0.49738,3.49623 -0.23405,1.15566 -0.26331,2.13577 -0.65828,3.21829 -0.27795,0.99474 -0.52663,1.78468 -0.95086,2.69165 -0.23406,0.65829 -0.39497,0.90698 -0.78994,1.66766 -0.36572,0.8192 -0.49737,0.84846 -0.67292,1.24343 -0.17554,0.39497 -0.23405,0.55589 -0.70217,1.30194 -0.46811,0.59977 -0.52663,0.76069 -1.31657,1.78469 -0.4096,0.52663 -0.3072,0.3072 -0.86309,1.06789 -0.39497,0.43885 -0.64365,0.8192 -1.19954,1.36045 -0.58514,0.49737 -0.73143,0.6144 -1.418972,1.05326 -0.541257,0.24869 -0.8192,0.46812 -0.775314,1.15566 -0.07314,0.77531 -0.219429,2.048 -0.336458,2.85257 -0.248685,0.49737 -0.277943,2.42834 -0.8192,0.77532 -0.277943,-0.74606 -0.512,-1.53601 -0.599771,-2.07726 -0.190172,-0.65829 -0.409601,-1.28732 -0.497372,-1.85783 -0.04389,-0.32183 -0.351086,-1.75543 -0.336457,-0.78994 0.01463,0.19017 -0.07314,0.49737 -0.190172,0.98011 0.3072,0.43886 -0.746057,0.14629 -1.536,0.3072 -0.599772,0.0585 -0.453486,-0.16091 -0.497372,-0.89234 -0.01463,-0.55589 -0.04389,-1.11178 -0.04389,-0.70218 -0.365714,0.68755 0.07314,1.60915 -0.746057,1.53601 -0.438857,-0.0585 -1.067886,-0.0146 -1.272686,0 -0.438857,-0.0146 -0.468114,-1.72618 -0.468114,-1.63841 -0.190172,0.27795 0.2048,1.78469 -0.775315,1.59452 -0.380343,0.0439 -1.448229,0.2048 -1.682286,0 -0.08777,-0.0146 -0.497372,-2.29669 -0.453486,-1.40434 -0.336457,0.6144 0.336457,1.62377 -0.9216,1.50674 -0.775315,0.27794 -0.848458,0.13166 -1.375087,-0.11703 -0.219428,-0.1024 -0.08777,-1.3312 -0.248685,-1.536 -0.08777,0.35109 -0.3072,1.8432 -0.468115,2.47223 -0.175543,1.1264 -0.3072,2.7648 -0.658286,3.21829 -0.351085,-0.1024 -0.7168,-2.10652 -0.965486,-2.88183 -0.219428,-0.77532 -0.380343,-1.7408 -0.702171,-2.07726 -0.716801,-0.36571 -1.448229,-0.98012 -1.755429,-1.2288 -0.409601,-0.42423 -1.097144,-0.99474 -0.994744,-0.87772 -0.570514,-0.55588 -0.848457,-0.8192 -1.301943,-1.536 -0.482743,-0.67291 -0.848457,-1.31657 -1.155657,-1.78468 -0.482743,-0.76069 -0.497372,-0.89235 -0.746058,-1.38972 -0.277943,-0.55588 -0.687543,-1.3312 -0.892343,-1.88708 -0.585143,-1.41898 -0.702172,-1.49212 -1.038629,-2.34058 -0.277943,-0.68754 -0.394971,-1.1264 -0.6144,-1.96022 -0.175543,-0.6144 -0.321829,-1.27269 -0.438857,-1.98949 -0.175543,-0.9216 -0.248686,-1.11177 -0.351086,-1.93097 -0.131657,-0.93623 -0.219429,-1.87246 -0.219429,-2.73555 -0.04389,-1.28731 -0.219428,-2.56 -0.219428,-3.77417 0,-1.067885 0.1024,-2.165029 0.131657,-3.042743 0.07314,-0.848458 0.277943,-2.048001 0.351086,-2.852572 0.05851,-1.404344 0.4096,-1.726172 0.643657,-3.072001 0.336457,-1.448229 0.746057,-2.16503 0.994743,-2.925716 0.3072,-0.804571 0.292572,-0.672914 0.672915,-1.623772 0.512,-0.789943 0.555886,-0.936228 1.024,-1.565257 0.175543,-0.263315 0.292571,-0.219429 0.453486,0.04389 l 0.321828,0.453485 0,0 z"
       sodipodi:nodetypes="cscccccccscccccccccccccccccccccccccccscccccccccccccccccccccccccccccccccccccccccccccccc"
       id="path2907" /><path
       style="fill:none;stroke:#000000;stroke-width:1;stroke-linecap:round;stroke-linejoin:round;stroke-miterlimit:4;stroke-dasharray:none"
       inkscape:connector-curvature="0"
       d="m 95.186585,110.72596 c -0.3072,-0.73143 -0.351086,-1.28732 -0.292571,-2.03337 -0.01463,-0.99475 0.277943,-1.8432 0.629029,-2.7648 0.248685,-0.4096 0.687543,-1.31658 1.009371,-1.68229 0.585143,-0.64366 0.804572,-1.00937 1.609144,-1.41897 0.658286,-0.48274 1.214171,-0.512 1.989482,-0.65829 0.84846,-0.0878 1.87246,0.4096 2.19429,1.15566 0.46811,0.73143 0.68754,1.30194 0.73143,2.12114 0.1024,0.6144 0.0146,1.3312 0,1.93098 -0.0731,0.4096 -0.0146,0.90697 -0.19017,1.19954 -0.11703,0.55588 -0.23406,0.78994 -0.52663,1.36046 -0.27794,0.49737 -0.76069,1.21417 -1.24343,1.56525 -0.46811,0.33646 -0.64366,0.54126 -1.404343,0.74606 -0.687543,0.35109 -1.492115,0.19017 -2.238172,0.23406 -0.541258,-0.1024 -0.804572,-0.3072 -1.272687,-0.58514 -0.292571,-0.17555 -0.863086,-0.89235 -0.994743,-1.17029 z"
       sodipodi:nodetypes="cccccccccccccccc"
       id="path2909" /><path
       style="fill:none;stroke:#000000;stroke-width:1;stroke-linecap:round;stroke-linejoin:round;stroke-miterlimit:4;stroke-dasharray:none"
       inkscape:connector-curvature="0"
       d="m 91.310013,119.54699 c -0.190172,-0.38034 -0.424229,-0.76068 -0.570515,-1.15566 -0.234057,-0.52663 -0.438857,-1.06788 -0.658286,-1.60914 -0.1024,-0.33646 -0.292571,-0.62903 -0.336457,-0.98011 -0.07314,-0.23406 -0.190171,-0.54126 0.02926,-0.73143 0.248686,-0.13166 0.497372,-0.13166 0.8192,-0.17555 0.336458,-0.0146 0.672915,-0.0146 1.024001,-0.0439 0.248686,-0.0731 0.643657,-0.0146 0.892343,0 0.351086,-0.0439 0.394971,-0.0439 0.731429,0.0293 0.277943,0.0439 0.4096,0.0878 0.453486,0.39497 -0.04389,0.27794 -0.07314,0.4096 -0.131658,0.68754 -0.131657,0.24869 -0.04389,0.23406 -0.175543,0.64366 -0.1024,0.36571 -0.146285,0.55588 -0.248685,0.84845 0,0.3072 -0.07314,0.19018 -0.117029,0.59978 -0.04389,0.24868 -0.1024,0.4096 -0.2048,0.77531 -0.07314,0.3072 -0.117029,0.39497 -0.263314,0.67292 -0.131658,0.23405 -0.336458,0.33645 -0.394972,0.29257 -0.190171,0.16091 -0.4096,0.0146 -0.585143,-0.0731 -0.1024,-0.0439 -0.190171,-0.1024 -0.263314,-0.17554 z"
       sodipodi:nodetypes="ccccccccccccccccccc"
       id="path2911" /><path
       style="fill:none;stroke:#000000;stroke-width:1;stroke-linecap:round;stroke-linejoin:round;stroke-miterlimit:4;stroke-dasharray:none"
       inkscape:connector-curvature="0"
       d="m 87.682126,110.62356 c 0.3072,-0.73143 0.351086,-1.28732 0.292571,-2.03337 0.01463,-0.99475 -0.277943,-1.8432 -0.629028,-2.7648 -0.248686,-0.4096 -0.687544,-1.31658 -1.009372,-1.68229 -0.585143,-0.64366 -0.804572,-1.00937 -1.609144,-1.41897 -0.658285,-0.48274 -1.214171,-0.512 -1.989486,-0.65829 -0.848457,-0.0878 -1.872458,0.4096 -2.194286,1.15566 -0.468115,0.73143 -0.687543,1.30194 -0.731429,2.12114 -0.1024,0.6144 -0.01463,1.3312 0,1.93098 0.07314,0.4096 0.07314,0.59977 0.190171,1.19954 0.117029,0.52663 0.234058,0.78994 0.526629,1.36046 0.277943,0.49737 0.760686,1.21417 1.243429,1.56525 0.482743,0.35109 0.643657,0.54126 1.404343,0.74606 0.687543,0.35109 1.492115,0.19017 2.238173,0.23406 0.541257,-0.1024 0.804571,-0.3072 1.272686,-0.58514 0.277943,-0.16092 0.848457,-0.87772 0.994743,-1.17029 z"
       sodipodi:nodetypes="cccccccccccccccc"
       id="path2909-9" /></g><g
     transform="matrix(0.03657144,0,0,0.03657144,60.35144,135.124)"
     id="use3372"
     style="stroke-width:27.34374146;stroke-miterlimit:4;stroke-dasharray:none"><path
       id="path4209"
       sodipodi:nodetypes="cscccccccscccccccccccccccccccccccccccscccccccccccccccccccccccccccccccccccccccccccccccc"
       d="m 505.2,283.6 c 3.6,5.2 8,10 13.6,16.8 4.4,6 11.2,13.2 15.6,20 8.8,10.4 5.2,7.6 12.8,20 9.2,15.6 18.4,28.8 28,46 7.6,13.6 10,21.6 20.8,41.2 6,12 12.8,30 19.2,52.8 6.4,20.8 9.6,26.8 13.6,50.4 7.6,35.6 13.6,54.8 16.4,83.2 2.8,7.6 6.8,13.2 12.4,11.6 5.2,-1.2 21.2,0.4 34,-6 18.4,-6.4 49.2,-17.6 74,-20 26.4,-4.4 59.2,-6.8 82,-7.6 24,-1.2 46.8,-1.6 69.2,0 26.4,1.2 56,4 78.8,9.2 20.8,3.2 36.4,7.6 56,13.2 20.8,9.6 26,10.4 33.2,3.2 7.2,-12.8 10.4,-26 13.2,-39.6 2.8,-21.6 1.6,-15.2 9.2,-39.2 11.6,-33.2 14.8,-47.6 21.2,-64 11.2,-39.6 25.6,-64.8 35.6,-88 11.6,-21.6 -3.6,5.2 17.2,-31.6 6,-12.8 16,-27.2 26,-41.2 19.2,-28 28,-34 34.8,-42 8.4,-20 20.8,14.8 32.4,34 7.6,22 15.6,28.8 21.6,50.4 6,16 7.2,21.2 12,37.6 6.4,23.2 10.8,40.4 13.6,58.8 8.8,38 13.2,60.4 17.2,93.2 2,25.6 4.8,37.6 5.2,60 2.8,26.8 2,45.2 3.2,64 -1.2,16.4 2,26 -1.2,58.4 0.4,24 -2,42.8 -4.8,66.8 -2.8,34 -8.4,60.8 -13.6,95.6 -6.4,31.6 -7.2,58.4 -18,88 -7.6,27.2 -14.4,48.8 -26,73.6 -6.4,18 -10.8,24.8 -21.6,45.6 -10,22.4 -13.6,23.2 -18.4,34 -4.8,10.8 -6.4,15.2 -19.2,35.6 -12.8,16.4 -14.4,20.8 -36,48.8 -11.2,14.4 -8.4,8.4 -23.6,29.2 -10.8,12 -17.6,22.4 -32.8,37.2 -16,13.6 -20,16.8 -38.8,28.8 -14.8,6.8 -22.4,12.8 -21.2,31.6 -2,21.2 -6,56 -9.2,78 -6.8,13.6 -7.6,66.4 -22.4,21.2 -7.6,-20.4 -14,-42 -16.4,-56.8 -5.2,-18 -11.2,-35.2 -13.6,-50.8 -1.2,-8.8 -9.6,-48 -9.2,-21.6 0.4,5.2 -2,13.6 -5.2,26.8 8.4,12 -20.4,4 -42,8.4 -16.4,1.6 -12.4,-4.4 -13.6,-24.4 -0.4,-15.2 -1.2,-30.4 -1.2,-19.2 -10,18.8 2,44 -20.4,42 -12,-1.6 -29.2,-0.4 -34.8,0 -12,-0.4 -12.8,-47.2 -12.8,-44.8 -5.2,7.6 5.6,48.8 -21.2,43.6 -10.4,1.2 -39.6,5.6 -46,0 -2.4,-0.4 -13.6,-62.8 -12.4,-38.4 -9.2,16.8 9.2,44.4 -25.2,41.2 -21.2,7.6 -23.2,3.6 -37.6,-3.2 -6,-2.8 -2.4,-36.4 -6.8,-42 -2.4,9.6 -8.4,50.4 -12.8,67.6 -4.8,30.8 -8.4,75.6 -18,88 -9.6,-2.8 -19.6,-57.6 -26.4,-78.8 -6,-21.2 -10.4,-47.6 -19.2,-56.8 -19.6,-10 -39.6,-26.8 -48,-33.6 -11.2,-11.6 -30,-27.2 -27.2,-24 -15.6,-15.2 -23.2,-22.4 -35.6,-42 -13.2,-18.4 -23.2,-36 -31.6,-48.8 -13.2,-20.8 -13.6,-24.4 -20.4,-38 -7.6,-15.2 -18.8,-36.4 -24.4,-51.6 -16,-38.8 -19.2,-40.8 -28.4,-64 -7.6,-18.8 -10.8,-30.8 -16.8,-53.6 -4.8,-16.8 -8.8,-34.8 -12,-54.4 -4.8,-25.2 -6.8,-30.4 -9.6,-52.8 -3.6,-25.6 -6,-51.2 -6,-74.8 -1.2,-35.2 -6,-70 -6,-103.2 0,-29.2 2.8,-59.2 3.6,-83.2 2,-23.2 7.6,-56 9.6,-78 1.6,-38.4 11.2,-47.2 17.6,-84 9.2,-39.6 20.4,-59.2 27.2,-80 8.4,-22 8,-18.4 18.4,-44.4 14,-21.6 15.2,-25.6 28,-42.8 4.8,-7.2 8,-6 12.4,1.2 l 8.8,12.4 0,0 z"
       inkscape:connector-curvature="0"
       style="fill:none;stroke:#000000;stroke-linecap:round;stroke-linejoin:round;stroke-width:27.34374146;stroke-miterlimit:4;stroke-dasharray:none" /><path
       id="path4211"
       sodipodi:nodetypes="cccccccccccccccc"
       d="m 962,969.2 c -8.4,-20 -9.6,-35.2 -8,-55.6 -0.4,-27.2 7.6,-50.4 17.2,-75.6 6.8,-11.2 18.8,-36 27.6,-46 16,-17.6 22,-27.6 44,-38.8 18,-13.2 33.2,-14 54.4,-18 23.2,-2.4 51.2,11.2 60,31.6 12.8,20 18.8,35.6 20,58 2.8,16.8 0.4,36.4 0,52.8 -2,11.2 -0.4,24.8 -5.2,32.8 -3.2,15.2 -6.4,21.6 -14.4,37.2 -7.6,13.6 -20.8,33.2 -34,42.8 -12.8,9.2 -17.6,14.8 -38.4,20.4 -18.8,9.6 -40.8,5.2 -61.2,6.4 -14.8,-2.8 -22,-8.4 -34.8,-16 -8,-4.8 -23.6,-24.4 -27.2,-32 z"
       inkscape:connector-curvature="0"
       style="fill:none;stroke:#000000;stroke-linecap:round;stroke-linejoin:round;stroke-width:27.34374146;stroke-miterlimit:4;stroke-dasharray:none" /><path
       id="path4213"
       sodipodi:nodetypes="ccccccccccccccccccc"
       d="m 856,1210.4 c -5.2,-10.4 -11.6,-20.8 -15.6,-31.6 -6.4,-14.4 -12,-29.2 -18,-44 -2.8,-9.2 -8,-17.2 -9.2,-26.8 -2,-6.4 -5.2,-14.8 0.8,-20 6.8,-3.6 13.6,-3.6 22.4,-4.8 9.2,-0.4 18.4,-0.4 28,-1.2 6.8,-2 17.6,-0.4 24.4,0 9.6,-1.2 10.8,-1.2 20,0.8 7.6,1.2 11.2,2.4 12.4,10.8 -1.2,7.6 -2,11.2 -3.6,18.8 -3.6,6.8 -1.2,6.4 -4.8,17.6 -2.8,10 -4,15.2 -6.8,23.2 0,8.4 -2,5.2 -3.2,16.4 -1.2,6.8 -2.8,11.2 -5.6,21.2 -2,8.4 -3.2,10.8 -7.2,18.4 -3.6,6.4 -9.2,9.2 -10.8,8 -5.2,4.4 -11.2,0.4 -16,-2 -2.8,-1.2 -5.2,-2.8 -7.2,-4.8 z"
       inkscape:connector-curvature="0"
       style="fill:none;stroke:#000000;stroke-linecap:round;stroke-linejoin:round;stroke-width:27.34374146;stroke-miterlimit:4;stroke-dasharray:none" /><path
       id="path4215"
       sodipodi:nodetypes="cccccccccccccccc"
       d="m 756.8,966.4 c 8.4,-20 9.6,-35.2 8,-55.6 0.4,-27.2 -7.6,-50.4 -17.2,-75.6 -6.8,-11.2 -18.8,-36 -27.6,-46 -16,-17.6 -22,-27.6 -44,-38.8 -18,-13.2 -33.2,-14 -54.4,-18 -23.2,-2.4 -51.2,11.2 -60,31.6 -12.8,20 -18.8,35.6 -20,58 -2.8,16.8 -0.4,36.4 0,52.8 2,11.2 2,16.4 5.2,32.8 3.2,14.4 6.4,21.6 14.4,37.2 7.6,13.6 20.8,33.2 34,42.8 13.2,9.6 17.6,14.8 38.4,20.4 18.8,9.6 40.8,5.2 61.2,6.4 14.8,-2.8 22,-8.4 34.8,-16 7.6,-4.4 23.2,-24 27.2,-32 z"
       inkscape:connector-curvature="0"
       style="fill:none;stroke:#000000;stroke-linecap:round;stroke-linejoin:round;stroke-width:27.34374146;stroke-miterlimit:4;stroke-dasharray:none" /></g><g
     transform="matrix(0.0548598,0,0,0.0548598,135.78254,59.149054)"
     id="use3374"
     style="stroke-width:18.22828373;stroke-miterlimit:4;stroke-dasharray:none"><path
       id="path4219"
       sodipodi:nodetypes="cscccccccscccccccccccccccccccccccccccscccccccccccccccccccccccccccccccccccccccccccccccc"
       d="m 505.2,283.6 c 3.6,5.2 8,10 13.6,16.8 4.4,6 11.2,13.2 15.6,20 8.8,10.4 5.2,7.6 12.8,20 9.2,15.6 18.4,28.8 28,46 7.6,13.6 10,21.6 20.8,41.2 6,12 12.8,30 19.2,52.8 6.4,20.8 9.6,26.8 13.6,50.4 7.6,35.6 13.6,54.8 16.4,83.2 2.8,7.6 6.8,13.2 12.4,11.6 5.2,-1.2 21.2,0.4 34,-6 18.4,-6.4 49.2,-17.6 74,-20 26.4,-4.4 59.2,-6.8 82,-7.6 24,-1.2 46.8,-1.6 69.2,0 26.4,1.2 56,4 78.8,9.2 20.8,3.2 36.4,7.6 56,13.2 20.8,9.6 26,10.4 33.2,3.2 7.2,-12.8 10.4,-26 13.2,-39.6 2.8,-21.6 1.6,-15.2 9.2,-39.2 11.6,-33.2 14.8,-47.6 21.2,-64 11.2,-39.6 25.6,-64.8 35.6,-88 11.6,-21.6 -3.6,5.2 17.2,-31.6 6,-12.8 16,-27.2 26,-41.2 19.2,-28 28,-34 34.8,-42 8.4,-20 20.8,14.8 32.4,34 7.6,22 15.6,28.8 21.6,50.4 6,16 7.2,21.2 12,37.6 6.4,23.2 10.8,40.4 13.6,58.8 8.8,38 13.2,60.4 17.2,93.2 2,25.6 4.8,37.6 5.2,60 2.8,26.8 2,45.2 3.2,64 -1.2,16.4 2,26 -1.2,58.4 0.4,24 -2,42.8 -4.8,66.8 -2.8,34 -8.4,60.8 -13.6,95.6 -6.4,31.6 -7.2,58.4 -18,88 -7.6,27.2 -14.4,48.8 -26,73.6 -6.4,18 -10.8,24.8 -21.6,45.6 -10,22.4 -13.6,23.2 -18.4,34 -4.8,10.8 -6.4,15.2 -19.2,35.6 -12.8,16.4 -14.4,20.8 -36,48.8 -11.2,14.4 -8.4,8.4 -23.6,29.2 -10.8,12 -17.6,22.4 -32.8,37.2 -16,13.6 -20,16.8 -38.8,28.8 -14.8,6.8 -22.4,12.8 -21.2,31.6 -2,21.2 -6,56 -9.2,78 -6.8,13.6 -7.6,66.4 -22.4,21.2 -7.6,-20.4 -14,-42 -16.4,-56.8 -5.2,-18 -11.2,-35.2 -13.6,-50.8 -1.2,-8.8 -9.6,-48 -9.2,-21.6 0.4,5.2 -2,13.6 -5.2,26.8 8.4,12 -20.4,4 -42,8.4 -16.4,1.6 -12.4,-4.4 -13.6,-24.4 -0.4,-15.2 -1.2,-30.4 -1.2,-19.2 -10,18.8 2,44 -20.4,42 -12,-1.6 -29.2,-0.4 -34.8,0 -12,-0.4 -12.8,-47.2 -12.8,-44.8 -5.2,7.6 5.6,48.8 -21.2,43.6 -10.4,1.2 -39.6,5.6 -46,0 -2.4,-0.4 -13.6,-62.8 -12.4,-38.4 -9.2,16.8 9.2,44.4 -25.2,41.2 -21.2,7.6 -23.2,3.6 -37.6,-3.2 -6,-2.8 -2.4,-36.4 -6.8,-42 -2.4,9.6 -8.4,50.4 -12.8,67.6 -4.8,30.8 -8.4,75.6 -18,88 -9.6,-2.8 -19.6,-57.6 -26.4,-78.8 -6,-21.2 -10.4,-47.6 -19.2,-56.8 -19.6,-10 -39.6,-26.8 -48,-33.6 -11.2,-11.6 -30,-27.2 -27.2,-24 -15.6,-15.2 -23.2,-22.4 -35.6,-42 -13.2,-18.4 -23.2,-36 -31.6,-48.8 -13.2,-20.8 -13.6,-24.4 -20.4,-38 -7.6,-15.2 -18.8,-36.4 -24.4,-51.6 -16,-38.8 -19.2,-40.8 -28.4,-64 -7.6,-18.8 -10.8,-30.8 -16.8,-53.6 -4.8,-16.8 -8.8,-34.8 -12,-54.4 -4.8,-25.2 -6.8,-30.4 -9.6,-52.8 -3.6,-25.6 -6,-51.2 -6,-74.8 -1.2,-35.2 -6,-70 -6,-103.2 0,-29.2 2.8,-59.2 3.6,-83.2 2,-23.2 7.6,-56 9.6,-78 1.6,-38.4 11.2,-47.2 17.6,-84 9.2,-39.6 20.4,-59.2 27.2,-80 8.4,-22 8,-18.4 18.4,-44.4 14,-21.6 15.2,-25.6 28,-42.8 4.8,-7.2 8,-6 12.4,1.2 l 8.8,12.4 0,0 z"
       inkscape:connector-curvature="0"
       style="fill:none;stroke:#000000;stroke-linecap:round;stroke-linejoin:round;stroke-width:18.22828373;stroke-miterlimit:4;stroke-dasharray:none" /><path
       id="path4221"
       sodipodi:nodetypes="cccccccccccccccc"
       d="m 962,969.2 c -8.4,-20 -9.6,-35.2 -8,-55.6 -0.4,-27.2 7.6,-50.4 17.2,-75.6 6.8,-11.2 18.8,-36 27.6,-46 16,-17.6 22,-27.6 44,-38.8 18,-13.2 33.2,-14 54.4,-18 23.2,-2.4 51.2,11.2 60,31.6 12.8,20 18.8,35.6 20,58 2.8,16.8 0.4,36.4 0,52.8 -2,11.2 -0.4,24.8 -5.2,32.8 -3.2,15.2 -6.4,21.6 -14.4,37.2 -7.6,13.6 -20.8,33.2 -34,42.8 -12.8,9.2 -17.6,14.8 -38.4,20.4 -18.8,9.6 -40.8,5.2 -61.2,6.4 -14.8,-2.8 -22,-8.4 -34.8,-16 -8,-4.8 -23.6,-24.4 -27.2,-32 z"
       inkscape:connector-curvature="0"
       style="fill:none;stroke:#000000;stroke-linecap:round;stroke-linejoin:round;stroke-width:18.22828373;stroke-miterlimit:4;stroke-dasharray:none" /><path
       id="path4223"
       sodipodi:nodetypes="ccccccccccccccccccc"
       d="m 856,1210.4 c -5.2,-10.4 -11.6,-20.8 -15.6,-31.6 -6.4,-14.4 -12,-29.2 -18,-44 -2.8,-9.2 -8,-17.2 -9.2,-26.8 -2,-6.4 -5.2,-14.8 0.8,-20 6.8,-3.6 13.6,-3.6 22.4,-4.8 9.2,-0.4 18.4,-0.4 28,-1.2 6.8,-2 17.6,-0.4 24.4,0 9.6,-1.2 10.8,-1.2 20,0.8 7.6,1.2 11.2,2.4 12.4,10.8 -1.2,7.6 -2,11.2 -3.6,18.8 -3.6,6.8 -1.2,6.4 -4.8,17.6 -2.8,10 -4,15.2 -6.8,23.2 0,8.4 -2,5.2 -3.2,16.4 -1.2,6.8 -2.8,11.2 -5.6,21.2 -2,8.4 -3.2,10.8 -7.2,18.4 -3.6,6.4 -9.2,9.2 -10.8,8 -5.2,4.4 -11.2,0.4 -16,-2 -2.8,-1.2 -5.2,-2.8 -7.2,-4.8 z"
       inkscape:connector-curvature="0"
       style="fill:none;stroke:#000000;stroke-linecap:round;stroke-linejoin:round;stroke-width:18.22828373;stroke-miterlimit:4;stroke-dasharray:none" /><path
       id="path4225"
       sodipodi:nodetypes="cccccccccccccccc"
       d="m 756.8,966.4 c 8.4,-20 9.6,-35.2 8,-55.6 0.4,-27.2 -7.6,-50.4 -17.2,-75.6 -6.8,-11.2 -18.8,-36 -27.6,-46 -16,-17.6 -22,-27.6 -44,-38.8 -18,-13.2 -33.2,-14 -54.4,-18 -23.2,-2.4 -51.2,11.2 -60,31.6 -12.8,20 -18.8,35.6 -20,58 -2.8,16.8 -0.4,36.4 0,52.8 2,11.2 2,16.4 5.2,32.8 3.2,14.4 6.4,21.6 14.4,37.2 7.6,13.6 20.8,33.2 34,42.8 13.2,9.6 17.6,14.8 38.4,20.4 18.8,9.6 40.8,5.2 61.2,6.4 14.8,-2.8 22,-8.4 34.8,-16 7.6,-4.4 23.2,-24 27.2,-32 z"
       inkscape:connector-curvature="0"
       style="fill:none;stroke:#000000;stroke-linecap:round;stroke-linejoin:round;stroke-width:18.22828373;stroke-miterlimit:4;stroke-dasharray:none" /></g><use
     x="0"
     y="0"
     xlink:href="#use3374"
     id="use3376"
     transform="translate(-1.41421,82.37794)"
     width="100%"
     height="100%" /><use
     x="0"
     y="0"
     xlink:href="#use3374"
     id="use3397"
     transform="matrix(8.4646744,0,0,8.4646744,-1057.1998,-494.83465)"
     width="100%"
     height="100%"
     style="stroke-width:1.18115926;stroke-miterlimit:4;stroke-dasharray:none" /><use
     x="0"
     y="0"
     xlink:href="#g4231"
     id="use4237"
     transform="matrix(1.9286316,0,0,1.9286316,-90.867616,123.32243)"
     width="100%"
     height="100%" /><use
     x="0"
     y="0"
     xlink:href="#use3372"
     id="use4239"
     transform="matrix(1.9286316,0,0,1.9286316,-90.867616,123.32243)"
     width="100%"
     height="100%" /></svg>